<mxfile host="app.diagrams.net" modified="2023-05-17T01:45:14.197Z" agent="Mozilla/5.0 (Windows NT 10.0; Win64; x64) AppleWebKit/537.36 (KHTML, like Gecko) Chrome/113.0.0.0 Safari/537.36" version="21.3.2" etag="bAB-6lMt1uE7Ltut-q9B" type="github">
  <diagram name="Page-1" id="tJ_38dr5mo-NUTQZeIwZ">
    <mxGraphModel>
      <root>
        <mxCell id="0" />
        <mxCell id="1" parent="0" />
      </root>
    </mxGraphModel>
  </diagram>
</mxfile>
